<svg xmlns="http://www.w3.org/2000/svg" width="240" height="200" viewBox="0 0 240 200">
    <g fill="none" fill-rule="evenodd" transform="translate(6 7)">
        <path fill="#DADADA" d="M200 83.084A62.088 62.088 0 0 0 184 81c-34.242 0-62 27.758-62 62 0 5.895.823 11.598 2.36 17H16c-8.837 0-16-7.163-16-16V16C0 7.163 7.163 0 16 0h168c8.837 0 16 7.163 16 16v67.084zm-76.761 5.055a12 12 0 0 0 3.638-3.64c3.573-5.581 1.944-13.002-3.638-16.575L93.437 48.851a12 12 0 0 0-6.468-1.893c-6.628 0-12 5.373-12 12v38.146a12 12 0 0 0 1.892 6.469c3.573 5.582 10.994 7.21 16.576 3.638L123.24 88.14z"/>
        <circle cx="183.5" cy="142.5" r="35.5" stroke="#DADADA" stroke-width="20"/>
        <path fill="#DCDCDC" d="M147 133h72.731v20H147z"/>
    </g>
</svg>
