<svg xmlns="http://www.w3.org/2000/svg" width="48" height="48" viewBox="0 0 48 48">
    <path fill="#49A836" fill-rule="evenodd" d="M32.53 23.704c3.097 0 5.587-2.512 5.587-5.608 0-3.096-2.49-5.609-5.586-5.609a5.61 5.61 0 0 0-5.609 5.609 5.61 5.61 0 0 0 5.609 5.608zm-16.826-2.243a6.702 6.702 0 0 0 6.709-6.73A6.702 6.702 0 0 0 15.704 8a6.721 6.721 0 0 0-6.73 6.73 6.721 6.721 0 0 0 6.73 6.731zm16.827 6.73c-4.106 0-12.34 2.065-12.34 6.17v5.048H44.87v-5.048c0-4.105-8.234-6.17-12.34-6.17zm-16.827-2.243C10.477 25.948 0 28.573 0 33.8v5.609h15.704v-5.048c0-1.907.74-5.25 5.318-7.785-1.952-.404-3.837-.628-5.318-.628z"/>
</svg>
