<svg xmlns="http://www.w3.org/2000/svg" width="70" height="70" viewBox="0 0 70 70">
    <g fill="none" fill-rule="evenodd">
        <path fill="#2D378D" d="M52.761 0c10.012 0 16.505 6.494 16.505 16.505V52.76c0 10.012-6.493 16.505-16.505 16.505H16.505C6.494 69.266 0 62.773 0 52.761V16.505C0 6.494 6.494 0 16.505 0H52.76z"/>
        <path fill="#00A3DA" d="M25.975 9.813c3.507 0 6.35 2.34 6.35 5.195 0 2.086-1.441 3.865-3.464 4.617-.473.265-2.391 2.792-2.886 2.887-.443.097.532-2.245 0-2.31-3.507.065-6.35-2.275-6.35-5.194 0-2.855 2.843-5.195 6.35-5.195"/>
        <path fill="#E2603D" d="M42.137 30.593c-4.592 0-8.081 2.765-8.081 6.349 0 2.256 1.768 4.358 4.618 5.195.213.365 2.567 3.352 2.886 3.463.832.116-.365-2.653.577-2.886 4.015.233 7.504-2.532 7.504-5.772 0-3.584-3.489-6.35-7.504-6.35"/>
        <path fill="#92C03F" d="M43.869 16.74c-3.636 0-6.35 2.157-6.35 4.617 0 2.097 1.375 3.737 3.464 4.618.293.057 2.569 2.222 2.886 2.309.577.09-.797-1.905 0-1.732 3.059-.173 5.772-2.33 5.772-5.195 0-2.46-2.713-4.618-5.772-4.618"/>
        <path fill="#00A3DA" d="M24.82 38.096c-3.058 0-5.772 2.158-5.772 4.618 0 2.097 1.375 3.737 3.464 4.618.293.057 2.568 2.222 2.886 2.309.577.09-.797-1.905-.578-1.732 3.636-.173 6.35-2.33 6.35-5.195 0-2.46-2.714-4.618-6.35-4.618"/>
        <path fill="#562353" d="M17.317 30.015c2.68 0 4.617 1.619 4.617 3.464 0 1.573-.982 2.802-2.309 3.463-.374.043-2 1.667-2.308 1.732-.33.067.65-1.429 0-1.155-2.103-.274-4.041-1.892-4.041-4.04 0-1.845 1.938-3.464 4.04-3.464"/>
        <path fill="#60605D" d="M30.015 31.17c2.361 0 4.041 1.295 4.041 2.886 0 1.143-.851 2.126-2.309 2.886-.017-.197-1.425 1.102-1.732 1.154-.247.055.603-1.142 0-1.154-1.783.012-3.463-1.283-3.463-2.886 0-1.591 1.68-2.886 3.463-2.886"/>
        <path fill="#C0923A" d="M13.853 19.625c2.55 0 4.618 1.727 4.618 4.041 0 1.331-1.047 2.643-2.309 3.463-.554-.07-2.287 1.662-2.886 1.732-.082.072.964-1.524.577-1.732-2.55.208-4.617-1.518-4.617-3.463 0-2.314 2.067-4.04 4.617-4.04"/>
        <path fill="#92C03F" d="M55.99 20.78c-2.55 0-4.617 1.726-4.617 4.04 0 1.332 1.047 2.644 2.308 3.464.554-.07 2.287 1.662 2.887 1.731.082.073-.964-1.523-.578-1.731 2.55.208 4.618-1.519 4.618-3.464 0-2.314-2.067-4.04-4.618-4.04"/>
        <path fill="#D0232A" d="M36.942 8.081c-2.55 0-4.618 1.726-4.618 4.04 0 1.332 1.048 2.644 2.31 3.464.553-.07 2.286 1.662 2.885 1.732.083.072-.964-1.524-.577-1.732 2.55.208 4.618-1.518 4.618-3.463 0-2.315-2.068-4.04-4.618-4.04"/>
        <path fill="#EC9242" d="M39.828 46.755c2.232 0 4.04 1.51 4.04 3.463 0 1.237-.916 2.385-2.308 2.886-.196.156-1.713 1.671-1.732 1.732-.577.063.339-1.333 0-1.155-2.231-.178-4.04-1.689-4.04-3.463 0-1.953 1.809-3.463 4.04-3.463"/>
        <path fill="#DA235F" d="M31.747 20.78c-2.869 0-5.195 1.834-5.195 4.04 0 1.667 1.179 3.061 2.886 3.464.335.395 2.285 2.235 2.886 2.309.165.076-1.012-1.62-.577-1.732 2.87.113 5.195-1.721 5.195-4.04 0-2.207-2.326-4.041-5.195-4.041"/>
        <path fill="#EC9242" d="M30.015 57.145c1.405 0 2.31.647 2.31 1.731 0 .283-.459.775-1.155 1.155-.098-.098-.856.55-1.155.577 0 .027.458-.571 0-.577-.827.006-1.731-.642-1.731-1.155 0-1.084.904-1.731 1.731-1.731"/>
        <path fill="#D0232A" d="M34.056 54.259c-1.146 0-2.309.97-2.309 2.309 0 .712.59 1.45 1.732 1.731-.122.141.853 1.115 1.154 1.155.083.04-.506-.858-.577-.578 1.723-.28 2.886-1.25 2.886-2.308 0-1.338-1.163-2.31-2.886-2.31"/>
        <path fill="#00A3DA" d="M47.91 42.137c2.36 0 4.04 1.295 4.04 2.886 0 1.143-.852 2.127-2.31 2.886-.016-.196-1.424 1.102-1.73 1.155-.248.054.602-1.143 0-1.155-1.784.012-3.464-1.283-3.464-2.886 0-1.591 1.68-2.886 3.463-2.886"/>
        <path fill="#60605D" d="M32.902 45.6c1.464 0 2.886 1.08 2.886 2.31 0 1.048-.72 1.868-1.732 2.308-.236.029-1.428 1.111-1.732 1.155-.165.045.555-.953.578-1.155-2.043.202-3.464-.877-3.464-2.309 0-1.23 1.421-2.309 3.464-2.309"/>
        <path fill="#6FA241" d="M16.162 40.405c-1.594 0-2.886.971-2.886 2.31 0 .712.655 1.45 1.732 1.73.057.142 1.14 1.116 1.154 1.155.412.04-.242-.857 0-.577 1.594-.28 2.886-1.25 2.886-2.309 0-1.338-1.292-2.309-2.886-2.309M10.39 28.284c-1.594 0-2.886.97-2.886 2.309 0 .712.655 1.45 1.732 1.731.057.141 1.14 1.116 1.154 1.155.412.04-.242-.857 0-.577 1.594-.28 2.886-1.251 2.886-2.31 0-1.337-1.292-2.308-2.886-2.308"/>
        <path fill="#F8C823" d="M11.544 35.788c.828 0 1.732.755 1.732 1.731 0 .619-.458 1.193-1.154 1.732-.098-.21-.857.547-1.155.577 0 .032.458-.666.577-.577-1.404-.09-2.308-.845-2.308-1.732 0-.976.904-1.731 2.308-1.731"/>
        <path fill="#DA235F" d="M46.755 10.39c-1.465 0-2.886 1.187-2.886 2.886 0 .807.72 1.709 1.731 2.309.237-.084 1.428 1.106 1.732 1.154.165.05-.555-1.047-.577-1.154 2.042.107 3.463-1.08 3.463-2.309 0-1.7-1.421-2.886-3.463-2.886"/>
        <path fill="#60605D" d="M53.104 14.43c1.594 0 2.886 1.08 2.886 2.31 0 1.048-.654 1.868-1.731 2.308-.058.029-1.141 1.111-1.155 1.155-.412.045.242-.953 0-1.155-1.594.202-2.886-.876-2.886-2.309 0-1.23 1.292-2.309 2.886-2.309"/>
        <path fill="#00A3DA" d="M23.089 27.13c1.404 0 2.309.754 2.309 1.731 0 .618-.459 1.192-1.155 1.732-.098-.211-.856.546-1.154.577 0 .031.458-.667 0-.577-.827-.09-1.732-.845-1.732-1.732 0-.977.905-1.732 1.732-1.732M38.674 25.975c.827 0 1.731.755 1.731 1.732 0 .618-.458 1.192-1.154 1.731-.098-.21-.856.547-1.155.577 0 .032.458-.666.578-.577-1.405-.09-2.31-.844-2.31-1.731 0-.977.905-1.732 2.31-1.732"/>
        <path fill="#562353" d="M49.64 27.13c1.147 0 2.31.863 2.31 1.731 0 .954-.59 1.61-1.732 1.732.122.253-.853 1.12-1.154 1.154-.083.036.506-.762.577-.577-1.724-.185-2.886-1.048-2.886-2.309 0-.868 1.162-1.732 2.886-1.732"/>
        <path fill="#6FA241" d="M60.03 29.438c.828 0 1.732.755 1.732 1.732 0 .618-.458 1.192-1.154 1.732-.098-.211-.856.546-1.154.577 0 .032.457-.667.577-.577-1.405-.09-2.309-.845-2.309-1.732 0-.977.904-1.732 2.309-1.732"/>
        <path fill="#DA235F" d="M54.836 32.902c1.465 0 2.886 1.186 2.886 2.886 0 .807-.72 1.709-1.732 2.308-.236-.084-1.428 1.107-1.731 1.155-.165.05.554-1.048.577-1.155-2.042.107-3.463-1.08-3.463-2.308 0-1.7 1.42-2.886 3.463-2.886"/>
        <path fill="#92C03F" d="M22.512 21.357c-1.276 0-2.31.863-2.31 1.732 0 .954.524 1.61 1.155 1.731.277.254 1.144 1.12 1.155 1.155.33.036-.194-.762 0-.577 1.275-.185 2.308-1.048 2.308-2.31 0-.868-1.033-1.73-2.308-1.73"/>
        <path fill="#EC9242" d="M35.21 50.795c.638 0 1.155.432 1.155 1.155 0 .188-.262.516-.577.577-.139.127-.572.56-.578.577-.165.018.097-.38 0-.577-.637.196-1.154-.235-1.154-.577 0-.723.517-1.155 1.154-1.155M34.633 40.983c-1.404 0-2.309.755-2.309 1.731 0 .619.459 1.193 1.155 1.732.098-.211.856.547 1.154.577 0 .032-.458-.666 0-.577.827-.09 1.732-.845 1.732-1.732 0-.976-.905-1.731-1.732-1.731"/>
        <path fill="#DA235F" d="M32.324 51.95c-.767 0-1.154.324-1.154.577 0 .43.196.676.577.577-.04.24.285.564.577.577-.165.014-.36-.285 0 0 .19-.285.578-.61.578-1.154 0-.253-.388-.577-.578-.577M27.707 60.608c-.19 0-.578.324-.578.577 0 .43.197.676.578.577-.041.24.284.565.577.578-.165.013-.362-.286-.577 0 .766-.286 1.154-.61 1.154-1.155 0-.253-.388-.577-1.154-.577"/>
    </g>
</svg>
