<svg xmlns="http://www.w3.org/2000/svg" xmlns:xlink="http://www.w3.org/1999/xlink" width="98" height="100" viewBox="0 0 98 100">
    <defs>
        <circle id="b" cx="49" cy="45" r="30"/>
        <filter id="a" width="208.3%" height="208.3%" x="-54.2%" y="-45.8%" filterUnits="objectBoundingBox">
            <feOffset dy="5" in="SourceAlpha" result="shadowOffsetOuter1"/>
            <feGaussianBlur in="shadowOffsetOuter1" result="shadowBlurOuter1" stdDeviation="10"/>
            <feColorMatrix in="shadowBlurOuter1" values="0 0 0 0 0 0 0 0 0 0 0 0 0 0 0 0 0 0 0.1 0"/>
        </filter>
    </defs>
    <g fill="none" fill-rule="evenodd">
        <g>
            <use fill="#000" filter="url(#a)" xlink:href="#b"/>
            <use fill="#FFF" xlink:href="#b"/>
        </g>
        <path fill="#92CCFF" d="M53.333 38.087L50 61l12.667-6.74z"/>
        <g transform="translate(34 30)">
            <path stroke="#343434" stroke-width="1.667" d="M6.046 7.35L2.962 20.444l12.335 6.234 12.255-7.433-9.26-16.847L6.047 7.35z"/>
            <ellipse cx="18.667" cy="2.022" fill="#343434" rx="2" ry="2.022"/>
            <ellipse cx="5.333" cy="6.739" fill="#343434" rx="2" ry="2.022"/>
            <ellipse cx="2" cy="20.891" fill="#343434" rx="2" ry="2.022"/>
            <ellipse cx="14.667" cy="26.957" fill="#343434" rx="2" ry="2.022"/>
            <ellipse cx="28" cy="19.543" fill="#343434" rx="2" ry="2.022"/>
            <path stroke="#343434" stroke-width="1.667" d="M18 2.022l-3.333 24.935M3.333 20.217l24-.674M27.333 18.87L6 7.413M14.667 26.283L6 8.087"/>
        </g>
    </g>
</svg>
