<svg xmlns="http://www.w3.org/2000/svg" width="20" height="20" viewBox="0 0 20 20">
    <path fill="#FFF" fill-rule="nonzero" d="M4.613 6.871H14.93V14.6c0 .845-.463 1.291-1.335 1.292h-.636c0 .895.01 1.765-.004 2.635-.008.54-.487.987-1.036 1.006-.59.021-1.128-.376-1.149-.927-.033-.891-.009-1.784-.009-2.695H8.784v1.062c-.001.522.01 1.044-.01 1.565-.018.51-.43.928-.939.99-.539.066-1.043-.238-1.203-.734a1.161 1.161 0 0 1-.057-.344c-.005-.741-.004-1.483-.002-2.224 0-.102.018-.204.03-.334h-.76c-.744-.006-1.229-.476-1.23-1.203-.002-2.54 0-5.081 0-7.622v-.196zm10.323-.74H4.602c.097-1.74 1.111-2.82 2.62-3.588l-.453-.667c-.109-.16-.22-.32-.328-.48-.076-.113-.199-.241-.029-.354.184-.122.259.049.34.165.193.278.384.558.576.838.236.345.236.345.641.23a6.373 6.373 0 0 1 3.846.08c.046.015.092.028.152.045l.787-1.147.094-.137c.074-.102.168-.158.285-.073.107.076.089.174.022.272-.228.33-.454.662-.68.994l-.158.234c1.5.76 2.524 1.843 2.619 3.587zm-2.402-1.956a.551.551 0 0 0-.548-.542.54.54 0 0 0-.553.532c-.002.3.235.535.543.537a.54.54 0 0 0 .558-.527zm-4.43-.013a.541.541 0 0 0-.555-.53.553.553 0 0 0-.545.545.543.543 0 0 0 .561.525.53.53 0 0 0 .54-.54zm9.772 6.077c0 .748.002 1.496-.001 2.243-.002.658-.467 1.133-1.102 1.133-.634 0-1.103-.479-1.104-1.133-.001-1.516-.003-3.031.001-4.547a1.069 1.069 0 0 1 .976-1.062c.577-.059 1.083.29 1.205.837.024.106.023.218.024.328v2.201zm-14.01 0c0 .782.007 1.564-.003 2.346-.007.48-.354.883-.825 1-.462.115-.968-.071-1.204-.48a1.197 1.197 0 0 1-.168-.561 362.83 362.83 0 0 1-.005-4.61c.002-.605.493-1.07 1.104-1.07.614 0 1.093.458 1.1 1.07.009.769.002 1.537.002 2.305h-.002z"/>
</svg>
