<svg xmlns="http://www.w3.org/2000/svg" width="20" height="20" viewBox="0 0 20 20">
    <path fill="#FFF" fill-rule="nonzero" d="M15.289 12.558c.497.676 1.068 1.113 1.711 1.31-.28.828-.722 1.69-1.329 2.587-.934 1.352-1.857 2.028-2.767 2.028-.34 0-.843-.111-1.51-.333-.62-.22-1.16-.332-1.62-.332-.462 0-.972.117-1.53.35-.583.221-1.062.332-1.438.332-1.092 0-2.166-.891-3.222-2.674C2.528 14.066 2 12.336 2 10.636c0-1.574.4-2.861 1.201-3.863C4.027 5.77 5.046 5.27 6.26 5.27c.267 0 .564.032.892.096a4.05 4.05 0 0 1 1.02.358c.375.198.685.335.928.411.242.076.43.114.564.114.158 0 .4-.035.728-.105a3.44 3.44 0 0 0 .983-.385c.352-.186.655-.326.91-.42.255-.092.516-.139.783-.139.85 0 1.614.221 2.294.664.364.233.734.577 1.11 1.031-.558.466-.965.874-1.22 1.224-.473.652-.71 1.363-.71 2.132 0 .85.25 1.62.747 2.307zm-3.88-8.286c-.423.385-.81.636-1.16.753-.121.035-.275.067-.463.096-.187.03-.401.056-.643.079.012-1.027.29-1.913.834-2.66.544-.747 1.438-1.26 2.683-1.54.024.117.042.198.054.245v.193c0 .42-.102.892-.308 1.417-.217.513-.55.986-.997 1.417z"/>
</svg>
